<?xml version="1.0" encoding="utf-8"?>
<!-- Generator: Adobe Illustrator 16.0.4, SVG Export Plug-In . SVG Version: 6.00 Build 0)  -->
<!DOCTYPE svg PUBLIC "-//W3C//DTD SVG 1.1//EN" "http://www.w3.org/Graphics/SVG/1.1/DTD/svg11.dtd">
<svg version="1.1" id="Layer_1" xmlns="http://www.w3.org/2000/svg" xmlns:xlink="http://www.w3.org/1999/xlink" x="0px" y="0px"
	 width="512px" height="512px" viewBox="0 0 512 512" enable-background="new 0 0 512 512" xml:space="preserve">
<path fill="#006341" d="M345.555,168.365h-28.658c0-51.217-20.533-85.052-61.214-85.052c-40.684,0-61.172,33.834-61.172,85.052
	h-28.688c0-59.768,33.66-114.667,89.859-114.667C312.088,53.698,345.555,108.598,345.555,168.365 M407.49,171.023
	c0-1.573-1.902-2.881-4.229-2.881H110.036c-2.316,0-4.24,1.308-4.24,2.881v284.448c0,1.597,1.924,2.887,4.24,2.887h293.226
	c2.326,0,4.229-1.29,4.229-2.887V171.023z"/>
</svg>
